<?xml version="1.0" encoding="UTF-8" standalone="no"?>
<svg xmlns="http://www.w3.org/2000/svg" viewBox="0 0 500 500" width="500" height="500">
  <!-- Financial Reddit King Logo -->
  <!-- Background is transparent -->
  
  <!-- Crown -->
  <path d="M250 100 L300 140 L330 120 L360 140 L380 110 L400 140 L420 120 L385 180 L115 180 L80 120 L100 140 L120 110 L140 140 L170 120 L200 140 Z" 
        fill="#FFD700" stroke="#000000" stroke-width="8"/>
  <path d="M140 150 L360 150 L350 170 L150 170 Z" 
        fill="#D82D00" stroke="#000000" stroke-width="4"/>
  <circle cx="170" cy="160" r="6" fill="#000000"/>
  <circle cx="210" cy="160" r="6" fill="#000000"/>
  <circle cx="250" cy="160" r="6" fill="#000000"/>
  <circle cx="290" cy="160" r="6" fill="#000000"/>
  <circle cx="330" cy="160" r="6" fill="#000000"/>

  <!-- Reddit head -->
  <ellipse cx="250" cy="250" rx="110" ry="100" 
           fill="#FFE4B5" stroke="#000000" stroke-width="8"/>
  
  <!-- Eyes -->
  <circle cx="200" cy="230" r="25" fill="#D82D00" stroke="#000000" stroke-width="6"/>
  <circle cx="300" cy="230" r="25" fill="#D82D00" stroke="#000000" stroke-width="6"/>
  
  <!-- Cheeks -->
  <ellipse cx="190" cy="270" rx="15" ry="10" fill="#FF6347" opacity="0.5"/>
  <ellipse cx="310" cy="270" rx="15" ry="10" fill="#FF6347" opacity="0.5"/>
  
  <!-- Smile -->
  <path d="M200 290 Q250 330 300 290" 
        fill="none" stroke="#000000" stroke-width="6" stroke-linecap="round"/>
  
  <!-- Ears -->
  <ellipse cx="150" cy="210" rx="20" ry="30" 
           fill="#FFE4B5" stroke="#000000" stroke-width="6"/>
  <ellipse cx="350" cy="210" rx="20" ry="30" 
           fill="#FFE4B5" stroke="#000000" stroke-width="6"/>
  
  <!-- Robe -->
  <path d="M150 320 L150 380 L350 380 L350 320 Z" 
        fill="#FFE4B5" stroke="#000000" stroke-width="6"/>
  <path d="M150 320 L150 380 L200 380 L250 320 Z" 
        fill="#2E8B57" stroke="#000000" stroke-width="3"/>
  <path d="M250 320 L300 380 L350 380 L350 320 Z" 
        fill="#D82D00" stroke="#000000" stroke-width="3"/>
  <ellipse cx="190" cy="345" rx="3" ry="3" fill="#000000"/>
  <ellipse cx="210" cy="345" rx="3" ry="3" fill="#000000"/>
  <ellipse cx="230" cy="345" rx="3" ry="3" fill="#000000"/>
  
  <!-- Scepter -->
  <path d="M150 350 L100 300" 
        fill="none" stroke="#8B4513" stroke-width="12" stroke-linecap="round"/>
  <circle cx="90" cy="290" r="12" 
          fill="#FFD700" stroke="#000000" stroke-width="3"/>
  
  <!-- Antenna -->
  <path d="M250 100 L250 60" 
        fill="none" stroke="#000000" stroke-width="8" stroke-linecap="round"/>
  <circle cx="250" cy="50" r="12" 
          fill="#FFD700" stroke="#000000" stroke-width="3"/>
</svg>
